<?xml version="1.0" standalone="no"?><!DOCTYPE svg PUBLIC "-//W3C//DTD SVG 1.1//EN" "http://www.w3.org/Graphics/SVG/1.1/DTD/svg11.dtd"><svg t="1540024574436" class="icon" style="" viewBox="0 0 1024 1024" version="1.1" xmlns="http://www.w3.org/2000/svg" p-id="9486" xmlns:xlink="http://www.w3.org/1999/xlink" width="32" height="32"><defs><style type="text/css"></style></defs><path d="M120.5 419.2l32.8 297v128.1c0 56.5 46 102.5 102.5 102.5h512.5c56.5 0 102.5-46 102.5-102.5l0.2-130.9 32.7-294.2L686 699.1h-35.7L512.1 284.7 374 699.1h-35.7L120.5 419.2z" fill="#F2E5C4" p-id="9487" data-spm-anchor-id="a313x.7781069.0.i28" class="selected"></path><path d="M512.1 163.5m-86.1 0a86.1 86.1 0 1 0 172.2 0 86.1 86.1 0 1 0-172.2 0Z" fill="#F2E5C4" p-id="9488" data-spm-anchor-id="a313x.7781069.0.i26" class="selected"></path><path d="M947.8 316m-76.3 0a76.3 76.3 0 1 0 152.6 0 76.3 76.3 0 1 0-152.6 0Z" fill="#F2E5C4" p-id="9489" data-spm-anchor-id="a313x.7781069.0.i29" class="selected"></path><path d="M76.4 316m-76.3 0a76.3 76.3 0 1 0 152.6 0 76.3 76.3 0 1 0-152.6 0Z" fill="#F2E5C4" p-id="9490" data-spm-anchor-id="a313x.7781069.0.i27" class="selected"></path></svg>