<?xml version="1.0" standalone="no"?><!DOCTYPE svg PUBLIC "-//W3C//DTD SVG 1.1//EN" "http://www.w3.org/Graphics/SVG/1.1/DTD/svg11.dtd"><svg t="1541574461219" class="icon" style="" viewBox="0 0 1024 1024" version="1.1" xmlns="http://www.w3.org/2000/svg" p-id="7099" xmlns:xlink="http://www.w3.org/1999/xlink" width="32" height="32"><defs><style type="text/css"></style></defs><path d="M145.986755 857.966654a26.839332 26.839332 0 0 1-20.835647-9.834609 509.341225 509.341225 0 0 1-42.574705-59.693785 27.060039 27.060039 0 0 1 46.234095-28.131554 448.48101 448.48101 0 0 0 38.114824 53.40421 27.136658 27.136658 0 0 1-3.545033 38.080518 28.165861 28.165861 0 0 1-17.393534 6.17522z m0 0" p-id="7100" fill="#bfbfbf"></path><path d="M512.280172 1023.942822a509.135384 509.135384 0 0 1-295.24409-93.543135 27.010866 27.010866 0 1 1 31.093372-44.084203 455.811223 455.811223 0 0 0 264.162154 83.59417c252.726562 0 458.384231-205.497571 458.384231-457.995421S765.006734 53.918812 512.291608 53.918812 54.033168 259.530739 54.033168 512.028589a455.593947 455.593947 0 0 0 18.434172 128.764755 27.071475 27.071475 0 0 1-51.963325 15.209336A512.600369 512.600369 0 0 1 0.011436 512.028589c0-282.344743 229.85538-511.971411 512.394527-511.971411s512.394528 229.626668 512.394528 511.971411-229.923994 511.971411-512.508883 511.971411z m0 0" p-id="7101" fill="#bfbfbf"></path><path d="M707.142643 201.32358H317.291909c-47.800771 0-86.624602 39.807292-86.624602 88.648702v443.3693c0 48.921458 38.823832 88.660137 86.624602 88.660138h389.850734c47.800771 0 86.624602-39.738679 86.624603-88.660138V290.018024c0.068614-48.841409-38.88101-88.648702-86.624603-88.648701z m43.352326 531.97226c0 24.426422-19.440505 44.358658-43.352326 44.358658H317.291909c-23.866079 0-43.352326-19.863622-43.352326-44.358658V290.018024c0-24.414987 19.440505-44.358658 43.352326-44.358657h389.850734c23.866079 0 43.352326 19.875057 43.352326 44.358657zM663.858931 356.561729H425.586956a22.185047 22.185047 0 0 0 0 44.358657h238.271975a22.185047 22.185047 0 0 0 0-44.358657z m0 133.007359H425.586956a22.185047 22.185047 0 0 0 0 44.358658h238.271975a22.185047 22.185047 0 0 0 0-44.358658z m0 132.950182H425.586956a22.185047 22.185047 0 0 0 0 44.358657h238.271975a22.185047 22.185047 0 0 0 0-44.358657zM338.962354 400.851773h43.352326v-44.358658h-43.352326z m0 133.018795h43.352326v-44.370093h-43.352326z m0 133.007359h43.352326v-44.358657h-43.352326z m0 0" p-id="7102" fill="#bfbfbf"></path></svg>