<?xml version="1.0" standalone="no"?><!DOCTYPE svg PUBLIC "-//W3C//DTD SVG 1.1//EN" "http://www.w3.org/Graphics/SVG/1.1/DTD/svg11.dtd"><svg t="1540019097761" class="icon" style="" viewBox="0 0 1024 1024" version="1.1" xmlns="http://www.w3.org/2000/svg" p-id="1263" xmlns:xlink="http://www.w3.org/1999/xlink" width="32" height="32"><defs><style type="text/css"></style></defs><path d="M459.954 607.201h233.734c14.352 0 25.941-11.088 25.941-24.799 0-13.623-11.588-24.71-25.941-24.71H459.954c-14.353 0-25.987 11.087-25.987 24.71 0 13.71 11.634 24.8 25.987 24.8z m-77.937 217.186l287.564-0.272v-0.634c9.37-1.494 16.66-9.233 16.66-19.054 0-9.773-7.29-17.694-16.66-19.233v-0.633H369.5c-27.275 0-51.95-38.47-51.95-65.215V303.761c0.182-1.041 0.634-1.992 0.634-3.123 0-10.997-8.985-20.003-20.032-20.003-11.023 0-20.01 9.007-20.01 20.003v418.708c0 54.037 48.939 105.04 103.875 105.04z m311.67-734.462c-3.235 0-311.669-0.814-311.669-0.814-51.292 0-96.314 39.1-102.108 88.294-0.182 1.086-0.657 2.037-0.657 3.169 0 0.09 0.023 0.135 0.023 0.18 0 0.047-0.023 0.09-0.023 0.182h0.067c0.181 10.86 9.032 19.685 19.942 19.685 10.933 0 19.762-8.825 19.965-19.685h0.226c6.044-24.665 27.028-52.044 50.048-52.044h284.755c-0.406 60.46 0 118.435 0 118.435 0 54.532 35.992 91.642 91.36 91.642h90.428v380.377c0.338 44.261-33.703 65.758-62.18 65.215v0.272c-10.23 0.723-18.426 9.188-18.426 19.594 0 10.454 8.196 18.737 18.426 19.417v0.272c0.248 0 0.498-0.092 0.746-0.092 0.184 0 0.34 0.092 0.522 0.092 0.972 0 1.812-0.408 2.74-0.545 52.288-3.755 97.58-52.314 97.58-104.225V299.778L693.688 89.925z m51.928 209.853c-27.684 0-51.927-51.412-51.927-78.7V142.377l129.839 157.4h-77.912zM459.955 483.47h233.733c14.352 0 25.941-11.041 25.941-24.709 0-13.667-11.588-24.754-25.941-24.754H459.954c-14.353 0-25.987 11.087-25.987 24.754 0 13.669 11.634 24.71 25.987 24.71zM716.71 841.356c-8.534 0-15.327 6.246-17.114 14.257l-0.476-0.045c-21.73 44.17-40.426 34.032-62.295 34.032H252.18c-27.277 0-64.466-38.512-64.466-65.213V322.315c0-24.801 29.857-58.607 55.954-63.403v-0.544c10.572-0.543 19.083-9.142 19.083-19.867 0-10.681-8.511-19.28-19.083-19.777v-0.227c-0.181 0.044-0.34 0.091-0.52 0.091-0.158 0-0.272-0.09-0.43-0.09-1.245 0-2.353 0.497-3.553 0.724-50.704 5.203-90.86 52.134-90.86 103.093v502.07c0 54.035 48.938 105.039 103.875 105.039h389.558c47.105 0 78.255-17.199 90.542-61.684 1.36-2.534 2.33-5.25 2.33-8.327 0.002-9.866-8.009-18.057-17.9-18.057z" fill="#201c1c" p-id="1264"></path></svg>