<?xml version="1.0" standalone="no"?><!DOCTYPE svg PUBLIC "-//W3C//DTD SVG 1.1//EN" "http://www.w3.org/Graphics/SVG/1.1/DTD/svg11.dtd"><svg t="1541147498792" class="icon" style="" viewBox="0 0 1024 1024" version="1.1" xmlns="http://www.w3.org/2000/svg" p-id="2002" xmlns:xlink="http://www.w3.org/1999/xlink" width="32" height="32"><defs><style type="text/css"></style></defs><path d="M511.987209 63.917752c-247.452835 0-448.077132 200.62225-448.077132 448.087365 0 247.452835 200.623273 448.078155 448.077132 448.078155 247.477394 0 448.100668-200.62532 448.100668-448.078155C960.087876 264.540002 759.464603 63.917752 511.987209 63.917752zM221.310943 327.061964c0-18.96698 15.373129-34.340109 34.340109-34.340109l296.689213 0c18.96391 0 34.341133 15.372106 34.341133 34.340109l0 220.995253c0 1.025353-0.075725 2.040473-0.148379 3.043313l0.148379 0 0 31.284517-34.341133 0-0.488117 0L255.650029 582.385047c-18.96698 0-34.340109-15.361873-34.340109-34.32783L221.30992 327.061964zM238.492254 672.717402c-9.482979 0-17.182334-7.674796-17.182334-17.156752l0-37.323047c0-9.482979 7.698333-17.169031 17.182334-17.169031l61.639872 0c-17.353227 15.703657-28.350698 38.32384-28.350698 63.584154 0 2.725064 0.170892 5.41329 0.415462 8.064676L238.492254 672.717402zM356.05274 731.266889c-36.513612 0-66.088184-29.599132-66.088184-66.101487 0-36.515658 29.574572-66.125023 66.088184-66.125023 36.515658 0 66.112744 29.610388 66.112744 66.125023C422.166507 701.667757 392.568399 731.266889 356.05274 731.266889zM685.104011 731.266889c-36.517705 0-66.112744-29.599132-66.112744-66.101487 0-36.515658 29.596062-66.125023 66.112744-66.125023 36.514635 0 66.109674 29.610388 66.109674 66.125023C751.213685 701.667757 721.618647 731.266889 685.104011 731.266889zM802.685987 655.56065c0 9.469676-7.698333 17.156752-17.179264 17.156752l-17.525142 0c0.221034-2.479471 0.390903-4.997827 0.390903-7.552 0-25.63996-11.414981-48.551786-29.378098-64.09683-14.882965-12.868075-34.217313-20.690228-55.406914-20.690228-21.217231 0-40.524972 7.822153-55.409984 20.690228-17.963117 15.544021-29.378098 38.45687-29.378098 64.09683 0 2.554172 0.149403 5.072529 0.369414 7.552L442.965206 672.717402c0.245593-2.651386 0.391926-5.339612 0.391926-8.064676 0-25.260314-10.974959-47.880497-28.352745-63.584154L593.76677 601.068572l9.066493 0L602.833263 382.553813c0-9.470699 7.673773-17.156752 17.158798-17.156752l89.209788 0 74.812893 126.884852 0 108.786659 1.49198 0c9.480932 0 17.179264 7.687076 17.179264 17.169031L802.685987 655.56065z" p-id="2003" fill="#F9BD01"></path></svg>