<?xml version="1.0" standalone="no"?><!DOCTYPE svg PUBLIC "-//W3C//DTD SVG 1.1//EN" "http://www.w3.org/Graphics/SVG/1.1/DTD/svg11.dtd"><svg t="1541147603678" class="icon" style="" viewBox="0 0 1025 1024" version="1.1" xmlns="http://www.w3.org/2000/svg" p-id="4270" xmlns:xlink="http://www.w3.org/1999/xlink" width="32.03125" height="32"><defs><style type="text/css"></style></defs><path d="M495.895719 970.807382" p-id="4271" fill="#F9BD01"></path><path d="M435.445967 590.534528l193.967255 0 0 136.539288-193.967255 0 0-136.539288Z" p-id="4272" fill="#F9BD01"></path><path d="M512.016589 0C229.233333 0 0 229.233333 0 512.017865 0 794.776876 229.233333 1024 512.016589 1024c282.774324 0 512.00638-229.223124 512.00638-511.982135C1024.024246 229.233333 794.790913 0 512.016589 0zM486.295679 267.485466c4.983139-4.983139 13.062077-4.983139 18.047769 0l33.385118 33.386394c4.983139 4.983139 4.984415 13.063353 0 18.046493-4.983139 4.983139-13.062077 4.983139-18.047769 0l-33.385118-33.386394C481.31254 280.548819 481.31254 272.469881 486.295679 267.485466zM663.228383 468.312991 531.15414 468.312991l-0.001276 96.698421 111.018725 0 0.001276 0 0.001276 0c7.04658 0 12.759644 5.711788 12.76092 12.76092l-0.001276 162.062404c0 7.04658-5.713064 12.762196-12.759644 12.759644-0.001276 0-0.001276 0-0.001276 0-0.001276 0-0.002552 0-0.002552 0l-219.459745-0.001276c-0.008933 0-0.016589 0.001276-0.025522 0.001276-3.901013 0.001276-7.387296-1.75335-9.728925-4.510985-1.888616-2.225504-3.034547-5.101816-3.033271-8.249935 0-0.003828 0-0.008933 0-0.012761L409.922851 577.785093c0-0.003828 0-0.008933 0-0.012761-0.001276-7.047856 5.711788-12.76092 12.76092-12.76092l82.945978 0L505.629749 406.422531c0-7.04658 5.713064-12.759644 12.76092-12.759644 7.04658 0 12.759644 5.711788 12.76092 12.76092l0 36.367345 132.075519 0c7.04658 0 12.762196 5.713064 12.759644 12.76092C675.990579 462.601204 670.278791 468.312991 663.228383 468.312991zM663.228383 355.731054l-289.672877 0 0 391.760234c0 7.04658-5.71434 12.76092-12.76092 12.76092-7.047856 0-12.76092-5.71434-12.76092-12.76092l0-404.521154c0-0.440252 0.02297-0.876675 0.066357-1.304166 0.653359-6.434056 6.086959-11.456754 12.694563-11.456754l302.433796 0c7.04658 0 12.76092 5.713064 12.76092 12.76092S670.276239 355.731054 663.228383 355.731054z" p-id="4273" fill="#F9BD01"></path></svg>