<?xml version="1.0" standalone="no"?><!DOCTYPE svg PUBLIC "-//W3C//DTD SVG 1.1//EN" "http://www.w3.org/Graphics/SVG/1.1/DTD/svg11.dtd"><svg t="1540019183102" class="icon" style="" viewBox="0 0 1024 1024" version="1.1" xmlns="http://www.w3.org/2000/svg" p-id="1880" xmlns:xlink="http://www.w3.org/1999/xlink" width="32" height="32"><defs><style type="text/css"></style></defs><path d="M800.362 639.125c-10.467 0-18.94 8.47-19.016 18.94V754.6c0 21.018-17.02 38.039-38.034 38.039H212.87c-20.998 0-38.035-17.021-38.035-38.039V264.31c0-21.016 17.037-38.032 38.035-38.032h530.44c21.015 0 38.037 17.016 38.037 38.033v102.103c0 10.51 8.506 19.02 19.016 19.02s19.017-8.51 19.017-19.02V260.507c0-39.916-32.35-72.265-72.265-72.265h-538.05c-39.915 0-72.265 32.349-72.265 72.265v497.897c0 39.917 32.349 72.267 72.265 72.267h538.05c39.915 0 72.265-32.35 72.265-72.267v-100.34c-0.04-10.469-8.55-18.939-19.018-18.939z" fill="#201c1c" p-id="1881"></path><path d="M814.163 412.37h-277.06c-37.449 0-67.855 28.546-71.55 65.01-0.42 0.667-0.725 1.608-0.734 3.295v60.188c0 39.915 32.347 72.265 72.285 72.265h277.06c39.917 0 72.268-32.35 72.268-72.265v-56.226c0-39.917-32.353-72.267-72.269-72.267z m34.231 124.693c0 21.014-17.055 38.03-38.032 38.03H540.906c-21.025 0-38.047-17.016-38.047-38.03v-48.624c0-20.98 17.022-38.035 38.047-38.035h269.456c20.978 0 38.032 17.057 38.032 38.035v48.624z" fill="#201c1c" p-id="1882"></path><path d="M788.64 489.143c-12.822 0-23.214 10.393-23.214 23.213 0 12.784 10.391 23.176 23.213 23.176s23.213-10.392 23.213-23.176c-0.001-12.82-10.392-23.213-23.213-23.213z" fill="#201c1c" p-id="1883"></path></svg>